# Mesh "jonnez_headlight" exported with UABE; 162 vertices, 576 indices, 384 bits per vertex
g jonnez_headlight
# SubMesh 0
# Vertices
v 0.005936 0.034996 0
vt 0.666048 0.810724
vn 0.403801 0.9148469 0
v -0.023346 0.036904 0.017772
vt 0.666727 0.843128
vn 0.19959928 0.8828453 0.42514032
v -0.023346 0.040961 0
vt 0.682738 0.833701
vn 0.19959526 0.9798784 0
v 0.005936 0.03153 0.015184
vt 0.654592 0.818163
vn 0.4037958 0.824255 0.39692906
v -0.023346 0.025539 0.032024
vt 0.649653 0.849469
vn 0.19959794 0.61094064 0.766102
v 0.005936 0.021819 0.027361
vt 0.642273 0.823307
vn 0.4038007 0.5704055 0.71525
v -0.023346 0.009115 0.039934
vt 0.632075 0.852632
vn 0.19959596 0.21802959 0.95531386
v 0.005936 0.007787 0.034118
vt 0.629501 0.826109
vn 0.40379554 0.20356105 0.89191484
v -0.023346 -0.009115 0.039934
vt 0.614558 0.852632
vn 0.19959596 -0.21802959 0.95531386
v 0.005936 -0.007787 0.034118
vt 0.616687 0.826581
vn 0.40379554 -0.20356105 0.89191484
v -0.023346 -0.025539 0.032024
vt 0.597644 0.849589
vn 0.19959794 -0.61094064 0.766102
v 0.005936 -0.021819 0.027361
vt 0.60423 0.824798
vn 0.4038007 -0.5704055 0.71525
v -0.023346 -0.036904 0.017772
vt 0.581836 0.843716
vn 0.19959928 -0.8828453 0.42514032
v 0.005936 -0.03153 0.015184
vt 0.592504 0.820898
vn 0.4037958 -0.824255 0.39692906
v -0.023346 -0.040961 0
vt 0.567575 0.835316
vn 0.19959526 -0.9798784 0
v 0.005936 -0.034996 0
vt 0.581837 0.815067
vn 0.403801 -0.9148469 0
v -0.023346 -0.036904 -0.017772
vt 0.555213 0.824766
vn 0.19959928 -0.8828453 -0.42514032
v 0.005936 -0.03153 -0.015184
vt 0.572502 0.807525
vn 0.4037958 -0.824255 -0.39692906
v -0.023346 -0.025539 -0.032024
vt 0.544977 0.812506
vn 0.19959794 -0.61094064 -0.766102
v 0.005936 -0.021819 -0.027361
vt 0.564702 0.798474
vn 0.4038007 -0.5704055 -0.71525
v -0.023346 -0.009115 -0.039934
vt 0.536901 0.799024
vn 0.19959596 -0.21802959 -0.95531386
v 0.005936 -0.007787 -0.034118
vt 0.558563 0.788014
vn 0.40379554 -0.20356105 -0.89191484
v -0.023346 0.009115 -0.039934
vt 0.530722 0.784996
vn 0.19959596 0.21802959 -0.95531386
v 0.005936 0.007787 -0.034118
vt 0.554146 0.775898
vn 0.40379554 0.20356105 -0.89191484
v 0.02341 -0.004795 -0.021008
vt 0.575306 0.780767
vn 0.8719553 -0.10892193 -0.4773155
v 0.02341 -0.013435 -0.016847
vt 0.579548 0.787991
vn 0.87195754 -0.30525076 -0.38276896
v 0.02341 -0.019415 -0.00935
vt 0.585214 0.794285
vn 0.87196195 -0.44109294 -0.21241312
v 0.02341 -0.021549 0
vt 0.592069 0.799486
vn 0.8719559 -0.48958442 0
v 0.02341 0.004795 -0.021008
vt 0.572893 0.772867
vn 0.8719553 0.10892193 -0.4773155
v 0.02341 -0.019415 0.00935
vt 0.599894 0.803424
vn 0.87196195 -0.44109294 0.21241312
v 0.02341 -0.013435 0.016847
vt 0.608456 0.805939
vn 0.87195754 -0.30525076 0.38276896
v 0.02341 -0.004795 0.021008
vt 0.617497 0.806905
vn 0.8719553 -0.10892193 0.4773155
v 0.02341 0.004795 0.021008
vt 0.626738 0.806233
vn 0.8719553 0.10892193 0.4773155
v 0.02341 0.013435 0.016847
vt 0.63588 0.803881
vn 0.87195754 0.30525076 0.38276896
v 0.02341 0.019415 0.00935
vt 0.644612 0.79986
vn 0.87196195 0.44109294 0.21241312
v 0.02341 0.021549 0
vt 0.652618 0.794232
vn 0.8719559 0.48958442 0
v 0.005936 0.03153 -0.015184
vt 0.676264 0.801072
vn 0.4037958 0.824255 -0.39692906
v -0.023346 0.036904 -0.017772
vt 0.697166 0.821408
vn 0.19959928 0.8828453 -0.42514032
v 0.005936 0.021819 -0.027361
vt 0.684917 0.789258
vn 0.4038007 0.5704055 -0.71525
v -0.023346 0.025539 -0.032024
vt 0.709589 0.806606
vn 0.19959794 0.61094064 -0.766102
v 0.005936 0.007787 -0.034118
vt 0.69181 0.775124
vn 0.40379554 0.20356105 -0.89191484
v -0.023346 0.009115 -0.039934
vt 0.719798 0.789854
vn 0.19959596 0.21802959 -0.95531386
v 0.02341 0.019415 -0.00935
vt 0.659573 0.787111
vn 0.87196195 0.44109294 -0.21241312
v 0.02341 0.013435 -0.016847
vt 0.665133 0.778658
vn 0.87195754 0.30525076 -0.38276896
v 0.02341 0.004795 -0.021008
vt 0.668886 0.769078
vn 0.8719553 0.10892193 -0.4773155
v -0.021962 0.042889 0
vt 0.629463 0.878789
vn 0.6602832 0.7510168 0
v -0.035892 0.038642 -0.018609
vt 0.621828 0.90258
vn -0.3701077 0.8369922 -0.4030686
v -0.021962 0.038642 -0.018609
vt 0.636729 0.900391
vn 0.66028374 0.67664206 -0.32585394
v -0.035892 0.042889 0
vt 0.616717 0.88638
vn -0.37010115 0.92899144 0
v -0.035892 0.026741 -0.033532
vt 0.620337 0.920375
vn -0.37010095 0.57921547 -0.72631586
v -0.021962 0.026741 -0.033532
vt 0.635606 0.923327
vn 0.66028523 0.46825773 -0.587161
v -0.035892 0.009544 -0.041814
vt 0.611931 0.938673
vn -0.3701004 0.20670323 -0.90570384
v -0.021962 0.009544 -0.041814
vt 0.627838 0.945163
vn 0.66028625 0.16709346 -0.73218983
v -0.039364 0.008751 -0.038342
vt 0.607386 0.935387
vn -0.90702856 0.09369373 -0.41051283
v -0.039364 0.024521 -0.030748
vt 0.61564 0.91914
vn -0.90703785 0.26252827 -0.32918274
v -0.039364 0.035433 -0.017064
vt 0.61725 0.9031
vn -0.90703577 0.37935582 -0.18268898
v -0.039364 0.039328 0
vt 0.61285 0.888577
vn -0.90702724 0.42107183 0
v -0.035892 0.038642 0.018609
vt 0.605818 0.873879
vn -0.3701077 0.8369922 0.4030686
v -0.039364 0.035433 0.017064
vt 0.603229 0.877395
vn -0.90703577 0.37935582 0.18268898
v -0.035892 0.026741 0.033532
vt 0.59093 0.867039
vn -0.37010095 0.57921547 0.72631586
v -0.021962 0.026741 0.033532
vt 0.593767 0.852701
vn 0.66028523 0.46825773 0.587161
v -0.021962 0.038642 0.018609
vt 0.614357 0.861909
vn 0.66028374 0.67664206 0.32585394
v -0.021962 0.009544 0.041814
vt 0.571299 0.852859
vn 0.66028625 0.16709346 0.73218983
v -0.035892 0.009544 0.041814
vt 0.574668 0.867008
vn -0.3701004 0.20670323 0.90570384
v -0.021962 -0.009544 0.041814
vt 0.551037 0.862343
vn 0.66028625 -0.16709346 0.73218983
v -0.035892 -0.009544 0.041814
vt 0.55996 0.873735
vn -0.3701004 -0.20670323 0.90570384
v -0.021962 -0.026741 0.033532
vt 0.536671 0.879336
vn 0.66028523 -0.46825773 0.587161
v -0.035892 -0.026741 0.033532
vt 0.549454 0.885935
vn -0.37010095 -0.57921547 0.72631586
v -0.021962 -0.038642 0.018609
vt 0.530722 0.900621
vn 0.66028374 -0.67664206 0.32585394
v -0.035892 -0.038642 0.018609
vt 0.544992 0.901334
vn -0.3701077 -0.8369922 0.4030686
v -0.021962 -0.042889 0
vt 0.534047 0.922283
vn 0.6602832 -0.7510168 0
v -0.035892 -0.042889 0
vt 0.547261 0.917156
vn -0.37010115 -0.92899144 0
v -0.021962 -0.038642 -0.018609
vt 0.545721 0.940557
vn 0.66028374 -0.67664206 -0.32585394
v -0.035892 -0.038642 -0.018609
vt 0.555728 0.930718
vn -0.3701077 -0.8369922 -0.4030686
v -0.021962 -0.026741 -0.033532
vt 0.563326 0.952693
vn 0.66028523 -0.46825773 -0.587161
v -0.035892 -0.026741 -0.033532
vt 0.568915 0.940027
vn -0.37010095 -0.57921547 -0.72631586
v -0.021962 -0.009544 -0.041814
vt 0.583625 0.95774
vn 0.66028625 -0.16709346 -0.73218983
v -0.035892 -0.009544 -0.041814
vt 0.585114 0.944209
vn -0.3701004 -0.20670323 -0.90570384
v -0.021962 0.009544 -0.041814
vt 0.603671 0.95774
vn 0.66028625 0.16709346 -0.73218983
v -0.035892 0.009544 -0.041814
vt 0.603671 0.943109
vn -0.3701004 0.20670323 -0.90570384
v -0.039364 -0.008751 0.038342
vt 0.562558 0.877129
vn -0.90702856 -0.09369373 0.41051283
v -0.039364 0.008751 0.038342
vt 0.575616 0.871198
vn -0.90702856 0.09369373 0.41051283
v -0.039364 -0.024521 0.030748
vt 0.553215 0.887928
vn -0.90703785 -0.26252827 0.32918274
v -0.039364 -0.035433 0.017064
vt 0.549227 0.901591
vn -0.90703577 -0.37935582 0.18268898
v -0.039364 -0.039328 0
vt 0.551228 0.915663
vn -0.90702724 -0.42107183 0
v -0.039364 -0.035433 -0.017064
vt 0.558791 0.927757
vn -0.90703577 -0.37935582 -0.18268898
v -0.039364 -0.024521 -0.030748
vt 0.570677 0.936052
vn -0.90703785 -0.26252827 -0.32918274
v -0.039364 -0.008751 -0.038342
vt 0.585463 0.939624
vn -0.90702856 -0.09369373 -0.41051283
v -0.039364 0.008751 -0.038342
vt 0.602463 0.937944
vn -0.90702856 0.09369373 -0.41051283
v -0.039364 0.008137 0.03565
vt 0.576077 0.873408
vn -1 0 0
v -0.039364 0.022799 0.028589
vt 0.589531 0.873486
vn -1 0 0
v -0.039364 0.024521 0.030748
vt 0.590038 0.87127
vn -0.90703785 0.26252827 0.32918274
v -0.039364 0.032945 0.015866
vt 0.601831 0.87922
vn -1 0 0
v -0.039364 0.036567 0
vt 0.610785 0.88969
vn -1 0 0
v -0.039364 -0.032945 0.015866
vt 0.551453 0.901762
vn -1 0 0
v -0.039364 -0.022799 0.028589
vt 0.555175 0.889009
vn -1 0 0
v -0.039364 -0.008137 0.03565
vt 0.563894 0.878936
vn -1 0 0
v -0.039364 -0.036567 0
vt 0.553331 0.914908
vn -1 0 0
v -0.039364 -0.032945 -0.015866
vt 0.560432 0.92621
vn -1 0 0
v -0.039364 -0.022799 -0.028589
vt 0.571631 0.933934
vn -1 0 0
v -0.039364 -0.008137 -0.03565
vt 0.585618 0.937096
vn -1 0 0
v -0.039364 0.008137 -0.03565
vt 0.60155 0.935259
vn -1 0 0
v 0.02341 0.021549 0
vt 0.673612 0.940338
vn 0.8719559 0.48958442 0
v 0.02341 0.019415 -0.00935
vt 0.668239 0.9336
vn 0.87196195 0.44109294 -0.21241312
v 0.02341 0.019415 0.00935
vt 0.67553 0.948741
vn 0.87196195 0.44109294 0.21241312
v 0.02341 0.013435 -0.016847
vt 0.660474 0.929861
vn 0.87195754 0.30525076 -0.38276896
v 0.02341 0.013435 0.016847
vt 0.673612 0.957144
vn 0.87195754 0.30525076 0.38276896
v 0.02341 0.004795 -0.021008
vt 0.651855 0.929861
vn 0.8719553 0.10892193 -0.4773155
v 0.02341 0.004795 0.021008
vt 0.668239 0.963882
vn 0.8719553 0.10892193 0.4773155
v 0.02341 -0.004795 -0.021008
vt 0.64409 0.9336
vn 0.8719553 -0.10892193 -0.4773155
v 0.02341 -0.004795 0.021008
vt 0.660474 0.967622
vn 0.8719553 -0.10892193 0.4773155
v 0.02341 -0.013435 0.016847
vt 0.651855 0.967622
vn 0.87195754 -0.30525076 0.38276896
v 0.02341 -0.013435 -0.016847
vt 0.638716 0.940338
vn 0.87195754 -0.30525076 -0.38276896
v 0.02341 -0.019415 0.00935
vt 0.64409 0.963882
vn 0.87196195 -0.44109294 0.21241312
v 0.02341 -0.019415 -0.00935
vt 0.636798 0.948741
vn 0.87196195 -0.44109294 -0.21241312
v 0.02341 -0.021549 0
vt 0.638716 0.957144
vn 0.8719559 -0.48958442 0
v -0.021962 0.038642 0.018609
vt 0.704513 0.915279
vn 0.66028374 0.67664206 0.32585394
v -0.021962 0.042889 0
vt 0.711956 0.899823
vn 0.6602832 0.7510168 0
v -0.021962 0.038642 -0.018609
vt 0.711956 0.882669
vn 0.66028374 0.67664206 -0.32585394
v -0.021962 0.026741 -0.033532
vt 0.704513 0.867214
vn 0.66028523 0.46825773 -0.587161
v -0.021962 0.026741 0.033532
vt 0.691101 0.925974
vn 0.66028523 0.46825773 0.587161
v -0.021962 0.009544 -0.041814
vt 0.691101 0.856518
vn 0.66028625 0.16709346 -0.73218983
v -0.021962 0.009544 0.041814
vt 0.674377 0.929792
vn 0.66028625 0.16709346 0.73218983
v -0.021962 -0.009544 -0.041814
vt 0.674377 0.852701
vn 0.66028625 -0.16709346 -0.73218983
v -0.021962 -0.009544 0.041814
vt 0.657653 0.925974
vn 0.66028625 -0.16709346 0.73218983
v -0.021962 -0.026741 0.033532
vt 0.644241 0.915279
vn 0.66028523 -0.46825773 0.587161
v -0.021962 -0.026741 -0.033532
vt 0.657653 0.856518
vn 0.66028523 -0.46825773 -0.587161
v -0.021962 -0.038642 0.018609
vt 0.636798 0.899823
vn 0.66028374 -0.67664206 0.32585394
v -0.021962 -0.038642 -0.018609
vt 0.644241 0.867214
vn 0.66028374 -0.67664206 -0.32585394
v -0.021962 -0.042889 0
vt 0.636798 0.882669
vn 0.6602832 -0.7510168 0
v -0.039364 0.008137 -0.03565
vt 0.60155 0.935259
vn -0.5019127 -0.19245175 0.8432353
v -0.034806 -0.007548 -0.033071
vt 0.585738 0.932373
vn -0.5019127 0.19245175 0.8432353
v -0.039364 -0.008137 -0.03565
vt 0.585618 0.937096
vn -0.5019127 0.19245175 0.8432353
v -0.034806 0.007548 -0.033071
vt 0.600352 0.930054
vn -0.5019127 -0.19245175 0.8432353
v -0.034806 -0.02115 -0.026521
vt 0.573331 0.929868
vn -0.50191766 0.539273 0.6762124
v -0.039364 -0.022799 -0.028589
vt 0.571631 0.933934
vn -0.50191766 0.539273 0.6762124
v -0.034806 -0.030562 -0.014718
vt 0.56348 0.923224
vn -0.5019141 0.77927 0.3752606
v -0.039364 -0.032945 -0.015866
vt 0.560432 0.92621
vn -0.5019141 0.77927 0.3752606
v -0.034806 -0.033922 0
vt 0.557279 0.913421
vn -0.50191903 0.8649146 0
v -0.039364 -0.036567 0
vt 0.553331 0.914908
vn -0.50191903 0.8649146 0
v -0.034806 -0.030562 0.014718
vt 0.555655 0.902027
vn -0.5019141 0.77927 -0.3752606
v -0.039364 -0.032945 0.015866
vt 0.551453 0.901762
vn -0.5019141 0.77927 -0.3752606
v -0.034806 -0.02115 0.026521
vt 0.558895 0.890996
vn -0.50191766 0.539273 -0.6762124
v -0.039364 -0.022799 0.028589
vt 0.555175 0.889009
vn -0.50191766 0.539273 -0.6762124
v -0.034806 -0.007548 0.033071
vt 0.566454 0.882306
vn -0.5019127 0.19245175 -0.8432353
v -0.039364 -0.008137 0.03565
vt 0.563894 0.878936
vn -0.5019127 0.19245175 -0.8432353
v -0.034806 0.007548 0.033071
vt 0.576997 0.87756
vn -0.5019127 -0.19245175 -0.8432353
v -0.039364 0.008137 0.03565
vt 0.576077 0.873408
vn -0.5019127 -0.19245175 -0.8432353
v -0.034806 0.02115 0.026521
vt 0.588624 0.877671
vn -0.50191766 -0.539273 -0.6762124
v -0.039364 0.022799 0.028589
vt 0.589531 0.873486
vn -0.50191766 -0.539273 -0.6762124
v -0.034806 0.030562 0.014718
vt 0.599236 0.882687
vn -0.5019141 -0.77927 -0.3752606
v -0.039364 0.032945 0.015866
vt 0.601831 0.87922
vn -0.5019141 -0.77927 -0.3752606
v -0.034806 0.033922 0
vt 0.60691 0.891822
vn -0.50191903 -0.8649146 0
v -0.039364 0.036567 0
vt 0.610785 0.88969
vn -0.50191903 -0.8649146 0
v -0.034806 0.030562 -0.014718
vt 0.610206 0.903691
vn -0.5019141 -0.77927 0.3752606
v -0.039364 0.032945 -0.015866
vt 0.614815 0.903303
vn -0.5019141 -0.77927 0.3752606
v -0.034806 0.02115 -0.026521
vt 0.608255 0.91676
vn -0.50191766 -0.539273 0.6762124
v -0.039364 0.022799 -0.028589
vt 0.61313 0.918362
vn -0.50191766 -0.539273 0.6762124
v -0.039364 0.008137 -0.03565
vt 0.605179 0.93352
vn -0.5019127 -0.19245175 0.8432353
v -0.039364 0.008137 -0.03565
vt 0.605179 0.93352
vn -1 0 0
v -0.039364 0.022799 -0.028589
vt 0.61313 0.918362
vn -1 0 0
v -0.039364 0.032945 -0.015866
vt 0.614815 0.903303
vn -1 0 0
# Faces (%u to %u)
g %s_%u
f -160/-160/-160 -161/-161/-161 -162/-162/-162
f -161/-161/-161 -159/-159/-159 -162/-162/-162
f -161/-161/-161 -158/-158/-158 -159/-159/-159
f -158/-158/-158 -157/-157/-157 -159/-159/-159
f -158/-158/-158 -156/-156/-156 -157/-157/-157
f -156/-156/-156 -155/-155/-155 -157/-157/-157
f -156/-156/-156 -154/-154/-154 -155/-155/-155
f -154/-154/-154 -153/-153/-153 -155/-155/-155
f -154/-154/-154 -152/-152/-152 -153/-153/-153
f -152/-152/-152 -151/-151/-151 -153/-153/-153
f -152/-152/-152 -150/-150/-150 -151/-151/-151
f -150/-150/-150 -149/-149/-149 -151/-151/-151
f -150/-150/-150 -148/-148/-148 -149/-149/-149
f -148/-148/-148 -147/-147/-147 -149/-149/-149
f -148/-148/-148 -146/-146/-146 -147/-147/-147
f -146/-146/-146 -145/-145/-145 -147/-147/-147
f -146/-146/-146 -144/-144/-144 -145/-145/-145
f -144/-144/-144 -143/-143/-143 -145/-145/-145
f -144/-144/-144 -142/-142/-142 -143/-143/-143
f -142/-142/-142 -141/-141/-141 -143/-143/-143
f -142/-142/-142 -140/-140/-140 -141/-141/-141
f -140/-140/-140 -139/-139/-139 -141/-141/-141
f -141/-141/-141 -138/-138/-138 -143/-143/-143
f -138/-138/-138 -137/-137/-137 -143/-143/-143
f -143/-143/-143 -137/-137/-137 -145/-145/-145
f -145/-145/-145 -136/-136/-136 -147/-147/-147
f -137/-137/-137 -136/-136/-136 -145/-145/-145
f -136/-136/-136 -135/-135/-135 -147/-147/-147
f -147/-147/-147 -135/-135/-135 -149/-149/-149
f -139/-139/-139 -134/-134/-134 -141/-141/-141
f -134/-134/-134 -138/-138/-138 -141/-141/-141
f -135/-135/-135 -133/-133/-133 -149/-149/-149
f -149/-149/-149 -133/-133/-133 -151/-151/-151
f -133/-133/-133 -132/-132/-132 -151/-151/-151
f -151/-151/-151 -132/-132/-132 -153/-153/-153
f -132/-132/-132 -131/-131/-131 -153/-153/-153
f -153/-153/-153 -131/-131/-131 -155/-155/-155
f -131/-131/-131 -130/-130/-130 -155/-155/-155
f -155/-155/-155 -130/-130/-130 -157/-157/-157
f -130/-130/-130 -129/-129/-129 -157/-157/-157
f -157/-157/-157 -129/-129/-129 -159/-159/-159
f -129/-129/-129 -128/-128/-128 -159/-159/-159
f -159/-159/-159 -128/-128/-128 -162/-162/-162
f -128/-128/-128 -127/-127/-127 -162/-162/-162
f -162/-162/-162 -127/-127/-127 -126/-126/-126
f -162/-162/-162 -126/-126/-126 -160/-160/-160
f -126/-126/-126 -125/-125/-125 -160/-160/-160
f -125/-125/-125 -126/-126/-126 -124/-124/-124
f -123/-123/-123 -125/-125/-125 -124/-124/-124
f -123/-123/-123 -124/-124/-124 -122/-122/-122
f -121/-121/-121 -123/-123/-123 -122/-122/-122
f -127/-127/-127 -120/-120/-120 -126/-126/-126
f -126/-126/-126 -120/-120/-120 -124/-124/-124
f -124/-124/-124 -119/-119/-119 -122/-122/-122
f -120/-120/-120 -119/-119/-119 -124/-124/-124
f -119/-119/-119 -118/-118/-118 -122/-122/-122
f -115/-115/-115 -116/-116/-116 -117/-117/-117
f -116/-116/-116 -114/-114/-114 -117/-117/-117
f -113/-113/-113 -116/-116/-116 -115/-115/-115
f -112/-112/-112 -113/-113/-113 -115/-115/-115
f -111/-111/-111 -113/-113/-113 -112/-112/-112
f -110/-110/-110 -111/-111/-111 -112/-112/-112
f -111/-111/-111 -109/-109/-109 -113/-113/-113
f -109/-109/-109 -108/-108/-108 -113/-113/-113
f -113/-113/-113 -108/-108/-108 -116/-116/-116
f -108/-108/-108 -107/-107/-107 -116/-116/-116
f -116/-116/-116 -107/-107/-107 -114/-114/-114
f -107/-107/-107 -106/-106/-106 -114/-114/-114
f -114/-114/-114 -106/-106/-106 -105/-105/-105
f -106/-106/-106 -104/-104/-104 -105/-105/-105
f -105/-105/-105 -104/-104/-104 -103/-103/-103
f -105/-105/-105 -103/-103/-103 -102/-102/-102
f -101/-101/-101 -105/-105/-105 -102/-102/-102
f -114/-114/-114 -105/-105/-105 -101/-101/-101
f -102/-102/-102 -103/-103/-103 -100/-100/-100
f -103/-103/-103 -99/-99/-99 -100/-100/-100
f -100/-100/-100 -99/-99/-99 -98/-98/-98
f -99/-99/-99 -97/-97/-97 -98/-98/-98
f -98/-98/-98 -97/-97/-97 -96/-96/-96
f -97/-97/-97 -95/-95/-95 -96/-96/-96
f -96/-96/-96 -95/-95/-95 -94/-94/-94
f -95/-95/-95 -93/-93/-93 -94/-94/-94
f -94/-94/-94 -93/-93/-93 -92/-92/-92
f -93/-93/-93 -91/-91/-91 -92/-92/-92
f -92/-92/-92 -91/-91/-91 -90/-90/-90
f -91/-91/-91 -89/-89/-89 -90/-90/-90
f -90/-90/-90 -89/-89/-89 -88/-88/-88
f -89/-89/-89 -87/-87/-87 -88/-88/-88
f -88/-88/-88 -87/-87/-87 -86/-86/-86
f -87/-87/-87 -85/-85/-85 -86/-86/-86
f -86/-86/-86 -85/-85/-85 -84/-84/-84
f -85/-85/-85 -83/-83/-83 -84/-84/-84
f -97/-97/-97 -82/-82/-82 -95/-95/-95
f -81/-81/-81 -82/-82/-82 -97/-97/-97
f -82/-82/-82 -80/-80/-80 -95/-95/-95
f -95/-95/-95 -80/-80/-80 -93/-93/-93
f -80/-80/-80 -79/-79/-79 -93/-93/-93
f -93/-93/-93 -79/-79/-79 -91/-91/-91
f -79/-79/-79 -78/-78/-78 -91/-91/-91
f -91/-91/-91 -78/-78/-78 -89/-89/-89
f -78/-78/-78 -77/-77/-77 -89/-89/-89
f -89/-89/-89 -77/-77/-77 -87/-87/-87
f -77/-77/-77 -76/-76/-76 -87/-87/-87
f -87/-87/-87 -76/-76/-76 -85/-85/-85
f -76/-76/-76 -75/-75/-75 -85/-85/-85
f -85/-85/-85 -75/-75/-75 -83/-83/-83
f -75/-75/-75 -74/-74/-74 -83/-83/-83
f -82/-82/-82 -81/-81/-81 -73/-73/-73
f -73/-73/-73 -81/-81/-81 -72/-72/-72
f -81/-81/-81 -71/-71/-71 -72/-72/-72
f -71/-71/-71 -81/-81/-81 -99/-99/-99
f -103/-103/-103 -71/-71/-71 -99/-99/-99
f -104/-104/-104 -71/-71/-71 -103/-103/-103
f -99/-99/-99 -81/-81/-81 -97/-97/-97
f -72/-72/-72 -71/-71/-71 -70/-70/-70
f -71/-71/-71 -104/-104/-104 -70/-70/-70
f -70/-70/-70 -104/-104/-104 -69/-69/-69
f -104/-104/-104 -106/-106/-106 -69/-69/-69
f -78/-78/-78 -79/-79/-79 -68/-68/-68
f -68/-68/-68 -79/-79/-79 -67/-67/-67
f -79/-79/-79 -80/-80/-80 -67/-67/-67
f -67/-67/-67 -80/-80/-80 -66/-66/-66
f -66/-66/-66 -82/-82/-82 -73/-73/-73
f -80/-80/-80 -82/-82/-82 -66/-66/-66
f -65/-65/-65 -78/-78/-78 -68/-68/-68
f -77/-77/-77 -78/-78/-78 -65/-65/-65
f -64/-64/-64 -77/-77/-77 -65/-65/-65
f -76/-76/-76 -77/-77/-77 -64/-64/-64
f -63/-63/-63 -76/-76/-76 -64/-64/-64
f -75/-75/-75 -76/-76/-76 -63/-63/-63
f -62/-62/-62 -75/-75/-75 -63/-63/-63
f -74/-74/-74 -75/-75/-75 -62/-62/-62
f -61/-61/-61 -74/-74/-74 -62/-62/-62
f -58/-58/-58 -59/-59/-59 -60/-60/-60
f -57/-57/-57 -59/-59/-59 -58/-58/-58
f -56/-56/-56 -57/-57/-57 -58/-58/-58
f -55/-55/-55 -57/-57/-57 -56/-56/-56
f -54/-54/-54 -55/-55/-55 -56/-56/-56
f -53/-53/-53 -55/-55/-55 -54/-54/-54
f -52/-52/-52 -53/-53/-53 -54/-54/-54
f -51/-51/-51 -53/-53/-53 -52/-52/-52
f -50/-50/-50 -53/-53/-53 -51/-51/-51
f -49/-49/-49 -50/-50/-50 -51/-51/-51
f -48/-48/-48 -50/-50/-50 -49/-49/-49
f -47/-47/-47 -48/-48/-48 -49/-49/-49
f -44/-44/-44 -45/-45/-45 -46/-46/-46
f -43/-43/-43 -44/-44/-44 -46/-46/-46
f -42/-42/-42 -43/-43/-43 -46/-46/-46
f -41/-41/-41 -43/-43/-43 -42/-42/-42
f -40/-40/-40 -41/-41/-41 -42/-42/-42
f -39/-39/-39 -41/-41/-41 -40/-40/-40
f -38/-38/-38 -39/-39/-39 -40/-40/-40
f -37/-37/-37 -39/-39/-39 -38/-38/-38
f -36/-36/-36 -39/-39/-39 -37/-37/-37
f -35/-35/-35 -36/-36/-36 -37/-37/-37
f -34/-34/-34 -36/-36/-36 -35/-35/-35
f -33/-33/-33 -34/-34/-34 -35/-35/-35
f -30/-30/-30 -31/-31/-31 -32/-32/-32
f -31/-31/-31 -29/-29/-29 -32/-32/-32
f -28/-28/-28 -31/-31/-31 -30/-30/-30
f -27/-27/-27 -28/-28/-28 -30/-30/-30
f -26/-26/-26 -28/-28/-28 -27/-27/-27
f -25/-25/-25 -26/-26/-26 -27/-27/-27
f -24/-24/-24 -26/-26/-26 -25/-25/-25
f -23/-23/-23 -24/-24/-24 -25/-25/-25
f -22/-22/-22 -24/-24/-24 -23/-23/-23
f -21/-21/-21 -22/-22/-22 -23/-23/-23
f -20/-20/-20 -22/-22/-22 -21/-21/-21
f -19/-19/-19 -20/-20/-20 -21/-21/-21
f -18/-18/-18 -20/-20/-20 -19/-19/-19
f -17/-17/-17 -18/-18/-18 -19/-19/-19
f -16/-16/-16 -18/-18/-18 -17/-17/-17
f -15/-15/-15 -16/-16/-16 -17/-17/-17
f -14/-14/-14 -16/-16/-16 -15/-15/-15
f -13/-13/-13 -14/-14/-14 -15/-15/-15
f -12/-12/-12 -14/-14/-14 -13/-13/-13
f -11/-11/-11 -12/-12/-12 -13/-13/-13
f -10/-10/-10 -12/-12/-12 -11/-11/-11
f -9/-9/-9 -10/-10/-10 -11/-11/-11
f -8/-8/-8 -10/-10/-10 -9/-9/-9
f -7/-7/-7 -8/-8/-8 -9/-9/-9
f -6/-6/-6 -8/-8/-8 -7/-7/-7
f -5/-5/-5 -6/-6/-6 -7/-7/-7
f -29/-29/-29 -6/-6/-6 -5/-5/-5
f -4/-4/-4 -29/-29/-29 -5/-5/-5
f -117/-117/-117 -114/-114/-114 -101/-101/-101
f -2/-2/-2 -108/-108/-108 -3/-3/-3
f -108/-108/-108 -109/-109/-109 -3/-3/-3
f -107/-107/-107 -108/-108/-108 -2/-2/-2
f -1/-1/-1 -107/-107/-107 -2/-2/-2
f -106/-106/-106 -107/-107/-107 -1/-1/-1
f -69/-69/-69 -106/-106/-106 -1/-1/-1

