# Mesh "jonnez_headlight_light" exported with UABE; 28 vertices, 120 indices, 384 bits per vertex
g jonnez_headlight_light
# SubMesh 0
# Vertices
v -0.044344 0.01109 0.005341
vt 0.085436 0.789945
vn -0.9721959 0.2109807 0.10159913
v -0.044344 0.01109 -0.005341
vt 0.085436 0.713687
vn -0.9721959 0.2109807 -0.10159913
v -0.044344 0.012309 0
vt 0.081085 0.751816
vn -0.9722014 0.23414627 0
v -0.044344 0.007675 -0.009624
vt 0.097628 0.68311
vn -0.9722 0.14600548 -0.1830562
v -0.044344 0.007675 0.009624
vt 0.097628 0.820522
vn -0.9722 0.14600548 0.1830562
v -0.044344 0.002739 -0.012001
vt 0.115246 0.666142
vn -0.9721993 0.05209682 -0.22828601
v -0.044344 0.002739 0.012001
vt 0.115246 0.837491
vn -0.9721993 0.05209682 0.22828601
v -0.044344 -0.002739 0.012001
vt 0.134801 0.837491
vn -0.9721993 -0.05209682 0.22828601
v -0.044344 -0.002739 -0.012001
vt 0.134801 0.666142
vn -0.9721993 -0.05209682 -0.22828601
v -0.044344 -0.007675 -0.009624
vt 0.152419 0.68311
vn -0.9722 -0.14600548 -0.1830562
v -0.044344 -0.007675 0.009624
vt 0.152419 0.820522
vn -0.9722 -0.14600548 0.1830562
v -0.044344 -0.01109 0.005341
vt 0.164611 0.789945
vn -0.9721959 -0.2109807 0.10159913
v -0.044344 -0.01109 -0.005341
vt 0.164611 0.713687
vn -0.9721959 -0.2109807 -0.10159913
v -0.044344 -0.012309 0
vt 0.168963 0.751816
vn -0.9722014 -0.23414627 0
v -0.034806 0.030562 0.014718
vt 0.015931 0.856889
vn -0.9148728 0.36375785 0.17517999
v -0.034806 0.033922 0
vt 0.00394 0.751816
vn -0.91487443 0.40373868 0
v -0.034806 0.02115 0.026521
vt 0.049529 0.941151
vn -0.914874 0.25172237 0.3156601
v -0.034806 0.007548 0.033071
vt 0.09808 0.987913
vn -0.9148687 0.08981749 0.39363435
v -0.034806 -0.007548 0.033071
vt 0.151967 0.987913
vn -0.9148687 -0.08981749 0.39363435
v -0.034806 -0.02115 0.026521
vt 0.200518 0.941151
vn -0.914874 -0.25172237 0.3156601
v -0.034806 -0.030562 0.014718
vt 0.234117 0.856889
vn -0.9148728 -0.36375785 0.17517999
v -0.034806 -0.033922 0
vt 0.246108 0.751816
vn -0.91487443 -0.40373868 0
v -0.034806 -0.030562 -0.014718
vt 0.234117 0.646743
vn -0.9148728 -0.36375785 -0.17517999
v -0.034806 -0.02115 -0.026521
vt 0.200518 0.562481
vn -0.914874 -0.25172237 -0.3156601
v -0.034806 -0.007548 -0.033071
vt 0.151967 0.515719
vn -0.9148687 -0.08981749 -0.39363435
v -0.034806 0.007548 -0.033071
vt 0.09808 0.515719
vn -0.9148687 0.08981749 -0.39363435
v -0.034806 0.02115 -0.026521
vt 0.049529 0.562481
vn -0.914874 0.25172237 -0.3156601
v -0.034806 0.030562 -0.014718
vt 0.015931 0.646743
vn -0.9148728 0.36375785 -0.17517999
# Faces (%u to %u)
g %s_%u
f -26/-26/-26 -27/-27/-27 -28/-28/-28
f -27/-27/-27 -25/-25/-25 -28/-28/-28
f -25/-25/-25 -24/-24/-24 -28/-28/-28
f -23/-23/-23 -24/-24/-24 -25/-25/-25
f -22/-22/-22 -24/-24/-24 -23/-23/-23
f -21/-21/-21 -22/-22/-22 -23/-23/-23
f -20/-20/-20 -21/-21/-21 -23/-23/-23
f -19/-19/-19 -21/-21/-21 -20/-20/-20
f -18/-18/-18 -21/-21/-21 -19/-19/-19
f -17/-17/-17 -18/-18/-18 -19/-19/-19
f -16/-16/-16 -17/-17/-17 -19/-19/-19
f -15/-15/-15 -17/-17/-17 -16/-16/-16
f -26/-26/-26 -28/-28/-28 -14/-14/-14
f -13/-13/-13 -26/-26/-26 -14/-14/-14
f -27/-27/-27 -26/-26/-26 -13/-13/-13
f -24/-24/-24 -12/-12/-12 -28/-28/-28
f -12/-12/-12 -14/-14/-14 -28/-28/-28
f -22/-22/-22 -11/-11/-11 -24/-24/-24
f -11/-11/-11 -12/-12/-12 -24/-24/-24
f -21/-21/-21 -10/-10/-10 -22/-22/-22
f -10/-10/-10 -11/-11/-11 -22/-22/-22
f -18/-18/-18 -9/-9/-9 -21/-21/-21
f -9/-9/-9 -10/-10/-10 -21/-21/-21
f -17/-17/-17 -8/-8/-8 -18/-18/-18
f -8/-8/-8 -9/-9/-9 -18/-18/-18
f -15/-15/-15 -7/-7/-7 -17/-17/-17
f -7/-7/-7 -8/-8/-8 -17/-17/-17
f -16/-16/-16 -6/-6/-6 -15/-15/-15
f -6/-6/-6 -7/-7/-7 -15/-15/-15
f -19/-19/-19 -5/-5/-5 -16/-16/-16
f -5/-5/-5 -6/-6/-6 -16/-16/-16
f -4/-4/-4 -5/-5/-5 -19/-19/-19
f -20/-20/-20 -4/-4/-4 -19/-19/-19
f -3/-3/-3 -4/-4/-4 -20/-20/-20
f -23/-23/-23 -3/-3/-3 -20/-20/-20
f -2/-2/-2 -3/-3/-3 -23/-23/-23
f -25/-25/-25 -2/-2/-2 -23/-23/-23
f -1/-1/-1 -2/-2/-2 -25/-25/-25
f -27/-27/-27 -1/-1/-1 -25/-25/-25
f -1/-1/-1 -27/-27/-27 -13/-13/-13

