# Mesh "jonnez_coll" exported with UABE; 20 vertices, 108 indices, 384 bits per vertex
g jonnez_coll
# SubMesh 0
# Vertices
v -0.609577 0.111583 -0.145238
vt 0 0
vn -0.6504286 0.6510084 0.39131925
v -0.633607 0.111583 -0.232831
vt 0 0
vn -0.77054036 0.6195635 -0.14969505
v -0.577561 0.111583 -0.306323
vt 0 0
vn -0.34822515 0.61957216 -0.7034697
v -0.290122 0.111583 0.155543
vt 0 0
vn -0.2683258 0.6285452 0.73002195
v -0.216264 0.111583 -0.306323
vt 0 0
vn -0.05484262 0.72549736 -0.68603635
v 0.208085 0.111583 -0.374607
vt 0 0
vn -0.020447966 0.6787199 -0.7341125
v 0.208085 0.111583 0.130191
vt 0 0
vn 0.01782341 0.71287537 0.7010643
v -0.216264 -0.111583 -0.306323
vt 0 0
vn -0.05484262 -0.72549736 -0.68603635
v 0.208085 -0.111583 -0.374607
vt 0 0
vn -0.020447966 -0.6787199 -0.7341125
v 0.208085 -0.111583 0.130191
vt 0 0
vn 0.01782341 -0.71287537 0.7010643
v -0.290122 -0.111583 0.155543
vt 0 0
vn -0.2683258 -0.6285452 0.73002195
v 0.471042 0.111583 -0.347203
vt 0 0
vn 0.38631633 0.62665766 -0.6768012
v 0.471042 -0.111583 -0.347203
vt 0 0
vn 0.38631633 -0.62665766 -0.6768012
v 0.417243 -0.111583 0.130191
vt 0 0
vn 0.38344887 -0.6124989 0.69123954
v 0.60349 -0.111583 -0.168294
vt 0 0
vn 0.7995713 -0.59973186 -0.03173992
v 0.417243 0.111583 0.130191
vt 0 0
vn 0.38344887 0.6124989 0.69123954
v 0.60349 0.111583 -0.168294
vt 0 0
vn 0.7995713 0.59973186 -0.03173992
v -0.577561 -0.111583 -0.306323
vt 0 0
vn -0.34822515 -0.61957216 -0.7034697
v -0.633607 -0.111583 -0.232831
vt 0 0
vn -0.77054036 -0.6195635 -0.14969505
v -0.609577 -0.111583 -0.145238
vt 0 0
vn -0.6504286 -0.6510084 0.39131925
# Faces (%u to %u)
g %s_%u
f -18/-18/-18 -19/-19/-19 -20/-20/-20
f -18/-18/-18 -20/-20/-20 -17/-17/-17
f -16/-16/-16 -18/-18/-18 -17/-17/-17
f -15/-15/-15 -16/-16/-16 -17/-17/-17
f -14/-14/-14 -15/-15/-15 -17/-17/-17
f -16/-16/-16 -15/-15/-15 -13/-13/-13
f -15/-15/-15 -12/-12/-12 -13/-13/-13
f -12/-12/-12 -11/-11/-11 -13/-13/-13
f -14/-14/-14 -17/-17/-17 -11/-11/-11
f -11/-11/-11 -10/-10/-10 -13/-13/-13
f -17/-17/-17 -10/-10/-10 -11/-11/-11
f -17/-17/-17 -20/-20/-20 -10/-10/-10
f -15/-15/-15 -9/-9/-9 -12/-12/-12
f -9/-9/-9 -8/-8/-8 -12/-12/-12
f -12/-12/-12 -8/-8/-8 -11/-11/-11
f -11/-11/-11 -7/-7/-7 -14/-14/-14
f -8/-8/-8 -7/-7/-7 -11/-11/-11
f -8/-8/-8 -6/-6/-6 -7/-7/-7
f -7/-7/-7 -5/-5/-5 -14/-14/-14
f -7/-7/-7 -6/-6/-6 -5/-5/-5
f -14/-14/-14 -5/-5/-5 -15/-15/-15
f -5/-5/-5 -9/-9/-9 -15/-15/-15
f -5/-5/-5 -4/-4/-4 -9/-9/-9
f -9/-9/-9 -4/-4/-4 -8/-8/-8
f -4/-4/-4 -6/-6/-6 -8/-8/-8
f -6/-6/-6 -4/-4/-4 -5/-5/-5
f -13/-13/-13 -3/-3/-3 -16/-16/-16
f -3/-3/-3 -18/-18/-18 -16/-16/-16
f -3/-3/-3 -2/-2/-2 -18/-18/-18
f -1/-1/-1 -2/-2/-2 -3/-3/-3
f -10/-10/-10 -1/-1/-1 -13/-13/-13
f -1/-1/-1 -3/-3/-3 -13/-13/-13
f -20/-20/-20 -1/-1/-1 -10/-10/-10
f -20/-20/-20 -19/-19/-19 -1/-1/-1
f -19/-19/-19 -2/-2/-2 -1/-1/-1
f -2/-2/-2 -19/-19/-19 -18/-18/-18

