# Mesh "jonnez_fuel_tap" exported with UABE; 92 vertices, 180 indices, 384 bits per vertex
g jonnez_fuel_tap
# SubMesh 0
# Vertices
v -0.002259 0.001716 0.00569
vt 0.633055 0.892874
vn -0.29207337 0.630262 0.71934897
v 0.002441 -0.001257 0.005657
vt 0.642568 0.908113
vn 0.38914412 0 0.9211769
v -0.002259 -0.001257 0.00569
vt 0.642566 0.892891
vn -0.37618467 0 0.9265447
v 0.002441 0.001716 0.005657
vt 0.633057 0.908097
vn 0.30211255 0.63025826 0.71519405
v 0.005741 -0.001257 0.00231
vt 0.644263 0.91875
vn 0.9265447 0 0.37618467
v 0.005741 0.001716 0.00231
vt 0.634752 0.918733
vn 0.71934897 0.630262 0.29207337
v -0.005606 0.001716 0.00239
vt 0.634747 0.881983
vn -0.71519405 0.63025826 0.30211255
v -0.005606 -0.001257 0.00239
vt 0.644258 0.882
vn -0.9211769 0 0.38914412
v 0.005741 0.001716 0.00231
vt 0.629946 0.921503
vn 0.71934897 0.630262 0.29207337
v 0.005708 -0.001257 -0.00239
vt 0.620662 0.90627
vn 0.9211769 0 -0.38914412
v 0.005741 -0.001257 0.00231
vt 0.620643 0.921493
vn 0.9265447 0 0.37618467
v 0.005708 0.001716 -0.00239
vt 0.629965 0.90628
vn 0.71519405 0.63025826 -0.30211255
v 0.005708 0.001716 -0.00239
vt 0.642583 0.881966
vn 0.71519405 0.63025826 -0.30211255
v 0.002361 -0.001257 -0.00569
vt 0.634805 0.871293
vn 0.37618467 0 -0.9265447
v 0.005708 -0.001257 -0.00239
vt 0.633078 0.881983
vn 0.9211769 0 -0.38914412
v 0.002361 0.001716 -0.00569
vt 0.64431 0.871276
vn 0.29207337 0.630262 -0.71934897
v -0.002339 -0.001257 -0.005657
vt 0.634795 0.85607
vn -0.38914412 0 -0.9211769
v -0.002339 0.001716 -0.005657
vt 0.6443 0.856053
vn -0.30211255 0.63025826 -0.71519405
v -0.005639 -0.001257 -0.00231
vt 0.633055 0.845232
vn -0.9265447 0 -0.37618467
v -0.005639 0.001716 -0.00231
vt 0.64256 0.845215
vn -0.71934897 0.630262 -0.29207337
v 0.005708 -0.001257 -0.00239
vt 0.644342 0.881967
vn -0 -1 0
v -0.002339 -0.001257 -0.005657
vt 0.655084 0.85597
vn -0 -1 0
v -0.005639 -0.001257 -0.00231
vt 0.64431 0.845215
vn -0 -1 0
v 0.002361 -0.001257 -0.00569
vt 0.655097 0.871193
vn -0 -1 0
v -0.005639 0.001716 -0.00231
vt 0.609658 0.906247
vn -0.71934897 0.630262 -0.29207337
v -0.005606 -0.001257 0.00239
vt 0.624893 0.896881
vn -0.9211769 0 0.38914412
v -0.005639 -0.001257 -0.00231
vt 0.60967 0.896858
vn -0.9265447 0 -0.37618467
v -0.005606 0.001716 0.00239
vt 0.624882 0.90627
vn -0.71519405 0.63025826 0.30211255
v 0.002441 -0.001257 0.005657
vt 0.644276 0.90798
vn -0 -1 0
v -0.005606 -0.001257 0.00239
vt 0.655018 0.881983
vn -0 -1 0
v -0.002259 -0.001257 0.00569
vt 0.644263 0.892757
vn -0 -1 0
v 0.005741 -0.001257 0.00231
vt 0.65505 0.918736
vn -0 -1 0
v 0.005741 -0.006337 0.001212
vt 0.625069 0.874115
vn -0.0069889133 -0.786207 0.6179237
v 0.014186 -0.006337 -0.001254
vt 0.632971 0.901495
vn 0.39314905 -0.76935995 -0.5035067
v 0.005708 -0.006337 -0.001254
vt 0.633055 0.874033
vn -0.010987082 -0.78704125 -0.6168025
v 0.014219 -0.006337 0.001212
vt 0.624985 0.901577
vn 0.39855286 -0.7670136 0.5028376
v -0.003189 -0.006337 -0.001212
vt 0.633008 0.845215
vn -0.42873117 -0.73852974 -0.52034926
v -0.003156 -0.006337 0.001254
vt 0.625023 0.845297
vn -0.41985717 -0.7388168 0.52713335
v -0.005606 -0.001257 0.00239
vt 0.624893 0.896881
vn -0.6619927 -0.4504334 0.5990621
v -0.003189 -0.006337 -0.001212
vt 0.613314 0.879061
vn -0.42873117 -0.73852974 -0.52034926
v -0.005639 -0.001257 -0.00231
vt 0.60967 0.896858
vn -0.66993356 -0.4528789 -0.58829385
v -0.003156 -0.006337 0.001254
vt 0.6213 0.879062
vn -0.41985717 -0.7388168 0.52713335
v 0.005741 -0.001257 0.00231
vt 0.575034 0.881944
vn -0.009888135 -0.23313414 0.9723943
v -0.003156 -0.006337 0.001254
vt 0.592812 0.853723
vn -0.41985717 -0.7388168 0.52713335
v -0.005606 -0.001257 0.00239
vt 0.576268 0.845215
vn -0.6619927 -0.4504334 0.5990621
v 0.005741 -0.006337 0.001212
vt 0.591833 0.882522
vn -0.0069889133 -0.786207 0.6179237
v 0.014219 -0.006337 0.001212
vt 0.590881 0.909967
vn 0.39855286 -0.7670136 0.5028376
v 0.015971 -0.003299 0.00231
vt 0.580411 0.91529
vn 0.5672096 -0.5101682 0.64653045
v -0.005639 -0.001257 -0.00231
vt 0.609635 0.845215
vn -0.66993356 -0.4528789 -0.58829385
v 0.005708 -0.006337 -0.001254
vt 0.592826 0.881944
vn -0.010987082 -0.78704125 -0.6168025
v 0.005708 -0.001257 -0.00239
vt 0.609658 0.881966
vn -0.016571805 -0.23841421 -0.9710222
v -0.003189 -0.006337 -0.001212
vt 0.592818 0.853128
vn -0.42873117 -0.73852974 -0.52034926
v 0.015938 -0.003299 -0.00239
vt 0.603115 0.915109
vn 0.56093985 -0.51110226 -0.65124565
v 0.014186 -0.006337 -0.001254
vt 0.592812 0.909403
vn 0.39314905 -0.76935995 -0.5035067
v 0.015938 -0.003299 -0.00239
vt 0.620643 0.90627
vn 0.56093985 -0.51110226 -0.65124565
v 0.014219 -0.006337 0.001212
vt 0.609661 0.91788
vn 0.39855286 -0.7670136 0.5028376
v 0.015971 -0.003299 0.00231
vt 0.620624 0.921493
vn 0.5672096 -0.5101682 0.64653045
v 0.014186 -0.006337 -0.001254
vt 0.609658 0.909894
vn 0.39314905 -0.76935995 -0.5035067
v 0.005708 -0.001257 -0.00239
vt 0.624985 0.879061
vn 0.19571686 0.98065954 -0.0013428257
v 0.015971 -0.003299 0.00231
vt 0.609658 0.845215
vn 0.19571686 0.98065954 -0.0013428257
v 0.005741 -0.001257 0.00231
vt 0.609762 0.879003
vn 0.19571686 0.98065954 -0.0013428257
v 0.015938 -0.003299 -0.00239
vt 0.624881 0.845273
vn 0.19571686 0.98065954 -0.0013428257
v 0.005708 0.001716 -0.00239
vt 0.671645 0.798557
vn 0.71519405 0.63025826 -0.30211255
v -0.002339 0.001716 -0.005657
vt 0.648513 0.854263
vn -0.30211255 0.63025826 -0.71519405
v 0.002361 0.001716 -0.00569
vt 0.671616 0.831201
vn 0.29207337 0.630262 -0.71934897
v -0.005639 0.001716 -0.00231
vt 0.615869 0.854235
vn -0.71934897 0.630262 -0.29207337
v 0.005741 0.001716 0.00231
vt 0.648582 0.775454
vn 0.71934897 0.630262 0.29207337
v -0.005606 0.001716 0.00239
vt 0.592807 0.831132
vn -0.71519405 0.63025826 0.30211255
v 0.002441 0.001716 0.005657
vt 0.615938 0.775425
vn 0.30211255 0.63025826 0.71519405
v -0.002259 0.001716 0.00569
vt 0.592835 0.798488
vn -0.29207337 0.630262 0.71934897
v 0.001356 0.0014 -0.003215
vt 0.624395 0.888554
vn 0.37618467 0 -0.9265447
v -0.001299 0.006337 -0.003196
vt 0.605848 0.85432
vn -0.38914412 0 -0.9211769
v -0.001299 0.0014 -0.003196
vt 0.605953 0.88861
vn -0.38914412 0 -0.9211769
v 0.001356 0.006337 -0.003215
vt 0.62429 0.854263
vn 0.37618467 0 -0.9265447
v -0.003164 0.006337 -0.001305
vt 0.592807 0.85436
vn -0.9265447 0 -0.37618467
v -0.003164 0.0014 -0.001305
vt 0.592912 0.88865
vn -0.9265447 0 -0.37618467
v -0.003145 0.0014 0.00135
vt 0.706032 0.833201
vn -0.9211769 0 0.38914412
v -0.001254 0.006337 0.003215
vt 0.671685 0.851539
vn -0.37618467 0 0.9265447
v -0.001254 0.0014 0.003215
vt 0.705975 0.851644
vn -0.37618467 0 0.9265447
v -0.003145 0.006337 0.00135
vt 0.671741 0.833096
vn -0.9211769 0 0.38914412
v 0.001401 0.006337 0.003196
vt 0.671645 0.86458
vn 0.38914412 0 0.9211769
v 0.001401 0.0014 0.003196
vt 0.705935 0.864685
vn 0.38914412 0 0.9211769
v -0.003164 0.0014 -0.001305
vt 0.706072 0.82016
vn -0.9265447 0 -0.37618467
v -0.003164 0.006337 -0.001305
vt 0.671781 0.820055
vn -0.9265447 0 -0.37618467
v 0.003247 0.0014 -0.00135
vt 0.671741 0.788466
vn 0.9211769 0 -0.38914412
v 0.001356 0.006337 -0.003215
vt 0.706072 0.77553
vn 0.37618467 0 -0.9265447
v 0.001356 0.0014 -0.003215
vt 0.671781 0.775425
vn 0.37618467 0 -0.9265447
v 0.003247 0.006337 -0.00135
vt 0.706032 0.788571
vn 0.9211769 0 -0.38914412
v 0.003266 0.0014 0.001305
vt 0.671685 0.806909
vn 0.9265447 0 0.37618467
v 0.003266 0.006337 0.001305
vt 0.705975 0.807014
vn 0.9265447 0 0.37618467
v 0.001401 0.0014 0.003196
vt 0.671645 0.81995
vn 0.38914412 0 0.9211769
v 0.001401 0.006337 0.003196
vt 0.705935 0.820055
vn 0.38914412 0 0.9211769
# Faces (%u to %u)
g %s_%u
f -90/-90/-90 -91/-91/-91 -92/-92/-92
f -91/-91/-91 -89/-89/-89 -92/-92/-92
f -91/-91/-91 -88/-88/-88 -89/-89/-89
f -88/-88/-88 -87/-87/-87 -89/-89/-89
f -92/-92/-92 -86/-86/-86 -90/-90/-90
f -86/-86/-86 -85/-85/-85 -90/-90/-90
f -82/-82/-82 -83/-83/-83 -84/-84/-84
f -83/-83/-83 -81/-81/-81 -84/-84/-84
f -78/-78/-78 -79/-79/-79 -80/-80/-80
f -79/-79/-79 -77/-77/-77 -80/-80/-80
f -79/-79/-79 -76/-76/-76 -77/-77/-77
f -76/-76/-76 -75/-75/-75 -77/-77/-77
f -76/-76/-76 -74/-74/-74 -75/-75/-75
f -74/-74/-74 -73/-73/-73 -75/-75/-75
f -70/-70/-70 -71/-71/-71 -72/-72/-72
f -71/-71/-71 -69/-69/-69 -72/-72/-72
f -66/-66/-66 -67/-67/-67 -68/-68/-68
f -67/-67/-67 -65/-65/-65 -68/-68/-68
f -62/-62/-62 -63/-63/-63 -64/-64/-64
f -63/-63/-63 -61/-61/-61 -64/-64/-64
f -58/-58/-58 -59/-59/-59 -60/-60/-60
f -59/-59/-59 -57/-57/-57 -60/-60/-60
f -56/-56/-56 -58/-58/-58 -60/-60/-60
f -55/-55/-55 -56/-56/-56 -60/-60/-60
f -52/-52/-52 -53/-53/-53 -54/-54/-54
f -53/-53/-53 -51/-51/-51 -54/-54/-54
f -48/-48/-48 -49/-49/-49 -50/-50/-50
f -49/-49/-49 -47/-47/-47 -50/-50/-50
f -47/-47/-47 -46/-46/-46 -50/-50/-50
f -46/-46/-46 -45/-45/-45 -50/-50/-50
f -42/-42/-42 -43/-43/-43 -44/-44/-44
f -43/-43/-43 -41/-41/-41 -44/-44/-44
f -42/-42/-42 -40/-40/-40 -43/-43/-43
f -40/-40/-40 -39/-39/-39 -43/-43/-43
f -36/-36/-36 -37/-37/-37 -38/-38/-38
f -37/-37/-37 -35/-35/-35 -38/-38/-38
f -32/-32/-32 -33/-33/-33 -34/-34/-34
f -33/-33/-33 -31/-31/-31 -34/-34/-34
f -28/-28/-28 -29/-29/-29 -30/-30/-30
f -29/-29/-29 -27/-27/-27 -30/-30/-30
f -30/-30/-30 -27/-27/-27 -26/-26/-26
f -26/-26/-26 -27/-27/-27 -25/-25/-25
f -24/-24/-24 -26/-26/-26 -25/-25/-25
f -23/-23/-23 -24/-24/-24 -25/-25/-25
f -20/-20/-20 -21/-21/-21 -22/-22/-22
f -21/-21/-21 -19/-19/-19 -22/-22/-22
f -18/-18/-18 -21/-21/-21 -20/-20/-20
f -17/-17/-17 -18/-18/-18 -20/-20/-20
f -14/-14/-14 -15/-15/-15 -16/-16/-16
f -15/-15/-15 -13/-13/-13 -16/-16/-16
f -12/-12/-12 -15/-15/-15 -14/-14/-14
f -11/-11/-11 -12/-12/-12 -14/-14/-14
f -16/-16/-16 -13/-13/-13 -10/-10/-10
f -13/-13/-13 -9/-9/-9 -10/-10/-10
f -6/-6/-6 -7/-7/-7 -8/-8/-8
f -7/-7/-7 -5/-5/-5 -8/-8/-8
f -8/-8/-8 -5/-5/-5 -4/-4/-4
f -5/-5/-5 -3/-3/-3 -4/-4/-4
f -4/-4/-4 -3/-3/-3 -2/-2/-2
f -3/-3/-3 -1/-1/-1 -2/-2/-2

